<svg version="1.1" id="Layer_1" xmlns="http://www.w3.org/2000/svg" xmlns:xlink="http://www.w3.org/1999/xlink" x="0px" y="0px" width="48px" height="48px" viewBox="0 0 600 600" enable-background="new 0 0 600 600" xml:space="preserve"><path id="color_x5F_2_1_" fill="#1B3D64" d="M536.179,210.676c-35.247,0-63.821,28.574-63.821,63.821    c0,11.974,3.305,23.173,9.041,32.749c-34.735,48.995-107.496,150.712-134.014,180.794c-43.12,48.915-90.451,78.497-138.142,84.758    c66.067,26.624,142.701-8.47,190.716-68.133c40.41-50.213,95.992-127.902,123.992-167.531c3.959,0.768,8.044,1.183,12.228,1.183    c35.247,0,63.821-28.574,63.821-63.821C600,239.25,571.426,210.676,536.179,210.676z M536.179,302.026    c-15.203,0-27.528-12.325-27.528-27.528s12.325-27.528,27.528-27.528s27.528,12.325,27.528,27.528S551.383,302.026,536.179,302.026z     M320.777,117.188c-35.247,0-63.821,28.574-63.821,63.821c0,11.257,2.925,21.826,8.04,31.008    c-21.723,25.648-94.321,111.358-121.46,143.295c-22.71,26.725-59.164,54.234-100.272,38.036    c18.713,27.219,61.995,59.783,104.526,29.161c37.246-26.818,136.542-148.951,160.64-178.884c3.996,0.784,8.122,1.205,12.348,1.205    c35.248,0,63.821-28.574,63.821-63.821C384.598,145.761,356.025,117.188,320.777,117.188z M320.777,208.537    c-15.203,0-27.529-12.325-27.529-27.529c0-15.203,12.325-27.528,27.529-27.528c15.204,0,27.528,12.325,27.528,27.528    C348.305,196.212,335.981,208.537,320.777,208.537z"></path><path id="color_x5F_1_2_" fill="#FBBF24" d="M524.893,18.173c-40.101,0-72.61,32.509-72.61,72.61    c0,14.393,4.205,27.796,11.429,39.081c-36.551,52.272-177.984,252.093-253.329,323.328C122.273,536.496,26.459,474.681,1.15,395.59    c-6.327,79.091,13.923,107.81,49.223,133.68c46.818,34.31,137.761,42.564,230.447-63.387    c79.147-90.475,192.516-256.459,225.245-304.969c6.006,1.609,12.314,2.479,18.828,2.479c40.101,0,72.61-32.509,72.61-72.61    S564.994,18.173,524.893,18.173z M524.893,123.858c-18.267,0-33.076-14.808-33.076-33.076s14.809-33.076,33.076-33.076    c18.267,0,33.076,14.808,33.076,33.076S543.16,123.858,524.893,123.858z"></path></svg>